<svg width="621" height="621" viewBox="0 0 621 621" fill="none" xmlns="http://www.w3.org/2000/svg">
<path d="M492.807 25.2959H171.328C151.019 25.3382 131.554 33.425 117.194 47.786C102.834 62.1471 94.7481 81.6125 94.707 101.921V533.133C94.7224 549.727 101.321 565.637 113.055 577.371C124.788 589.104 140.698 595.703 157.292 595.718H499.327C506.482 595.711 513.342 592.865 518.401 587.807C523.461 582.748 526.308 575.889 526.317 568.734V58.7765C526.306 49.895 522.772 41.3807 516.489 35.1032C510.206 28.8258 501.688 25.2985 492.807 25.2959ZM492.807 42.2764C497.182 42.2764 501.377 44.0143 504.471 47.1077C507.564 50.2012 509.302 54.3969 509.302 58.7717V470.563H157.278C156.307 470.563 155.337 470.665 154.367 470.713V44.7701C159.876 43.1219 165.596 42.2819 171.347 42.2764H492.807ZM111.688 101.921C111.694 92.2898 114.034 82.8031 118.508 74.2735C122.982 65.7439 129.456 58.4256 137.377 52.945V473.862C127.58 477.175 118.755 482.86 111.688 490.41V101.921ZM509.312 568.719C509.308 571.372 508.252 573.915 506.376 575.791C504.5 577.666 501.956 578.721 499.303 578.723H157.268C145.376 578.423 134.072 573.488 125.768 564.971C117.463 556.454 112.815 545.029 112.815 533.133C112.815 521.238 117.463 509.813 125.768 501.296C134.072 492.779 145.376 487.844 157.268 487.543H509.302L509.312 568.719Z" fill="#05C87F"/>
<path d="M206.322 541.623H414.677C416.929 541.623 419.089 540.729 420.681 539.136C422.273 537.544 423.168 535.385 423.168 533.133C423.168 530.881 422.273 528.722 420.681 527.129C419.089 525.537 416.929 524.643 414.677 524.643H206.322C204.071 524.643 201.911 525.537 200.319 527.129C198.727 528.722 197.832 530.881 197.832 533.133C197.832 535.385 198.727 537.544 200.319 539.136C201.911 540.729 204.071 541.623 206.322 541.623Z" fill="#05C87F"/>
<path d="M279.965 412.727H389.988C396.109 412.721 401.977 410.287 406.306 405.96C410.634 401.632 413.069 395.764 413.077 389.644V369.888C413.07 363.766 410.636 357.897 406.308 353.567C401.979 349.238 396.11 346.802 389.988 346.795H367.938V211.606C367.931 204.914 365.272 198.498 360.543 193.764C355.814 189.029 349.401 186.363 342.71 186.349H279.965C273.843 186.355 267.973 188.789 263.644 193.118C259.314 197.446 256.879 203.315 256.871 209.437V229.193C256.879 235.315 259.314 241.184 263.644 245.512C267.973 249.841 273.843 252.275 279.965 252.281H302.01V346.795H279.965C273.842 346.801 267.972 349.236 263.642 353.566C259.313 357.895 256.878 363.765 256.871 369.888V389.644C256.879 395.765 259.315 401.634 263.644 405.961C267.974 410.289 273.843 412.722 279.965 412.727ZM273.852 369.888C273.854 368.268 274.499 366.714 275.645 365.568C276.791 364.423 278.344 363.778 279.965 363.775H310.5C312.752 363.775 314.912 362.881 316.504 361.288C318.096 359.696 318.991 357.537 318.991 355.285V243.791C318.991 241.539 318.096 239.38 316.504 237.788C314.912 236.195 312.752 235.301 310.5 235.301H279.965C278.344 235.301 276.79 234.658 275.644 233.512C274.497 232.367 273.853 230.813 273.852 229.193V209.437C273.854 207.817 274.499 206.264 275.645 205.119C276.791 203.974 278.345 203.33 279.965 203.329H342.686C344.875 203.339 346.971 204.216 348.516 205.766C350.062 207.317 350.931 209.417 350.933 211.606V355.285C350.933 356.4 351.152 357.504 351.578 358.535C352.005 359.565 352.63 360.501 353.418 361.29C354.207 362.078 355.143 362.704 356.174 363.13C357.204 363.557 358.308 363.776 359.423 363.775H389.988C391.608 363.779 393.16 364.424 394.305 365.57C395.45 366.716 396.094 368.268 396.096 369.888V389.644C396.094 391.262 395.449 392.814 394.304 393.958C393.159 395.102 391.607 395.746 389.988 395.747H279.965C278.345 395.747 276.792 395.104 275.645 393.96C274.499 392.816 273.854 391.263 273.852 389.644V369.888Z" fill="#05C87F"/>
<path d="M334.975 172.206C341.494 172.201 347.865 170.264 353.284 166.639C358.702 163.013 362.923 157.863 365.415 151.839C367.906 145.814 368.555 139.187 367.281 132.794C366.006 126.4 362.864 120.529 358.253 115.921C353.642 111.313 347.767 108.175 341.373 106.905C334.979 105.635 328.352 106.289 322.329 108.785C316.307 111.281 311.16 115.506 307.539 120.927C303.917 126.348 301.984 132.721 301.984 139.24C301.991 147.985 305.469 156.37 311.656 162.552C317.842 168.734 326.23 172.206 334.975 172.206ZM334.975 123.254C338.143 123.254 341.239 124.194 343.872 125.954C346.506 127.714 348.558 130.216 349.769 133.143C350.98 136.07 351.295 139.29 350.676 142.396C350.056 145.503 348.529 148.355 346.287 150.594C344.046 152.832 341.191 154.355 338.084 154.97C334.976 155.585 331.756 155.264 328.831 154.049C325.906 152.833 323.408 150.777 321.651 148.141C319.895 145.505 318.96 142.407 318.965 139.24C318.971 134.998 320.661 130.932 323.663 127.935C326.664 124.937 330.733 123.254 334.975 123.254Z" fill="#05C87F"/>
</svg>
