<svg width="748" height="748" viewBox="0 0 748 748" fill="none" xmlns="http://www.w3.org/2000/svg">
<g clip-path="url(#clip0_538_753)">
<path d="M453.898 312.128C453.898 267.997 418.131 232.23 374.001 232.23C329.87 232.23 294.104 267.997 294.104 312.128C294.104 341.844 310.337 367.78 334.412 381.546V476.181C334.412 498.056 352.14 515.784 374.015 515.784C395.889 515.784 413.618 498.056 413.618 476.181V381.546C437.693 367.78 453.926 341.858 453.926 312.128H453.898Z" fill="#05C87F"/>
<path d="M648.316 421.755C625.807 552.707 511.384 652.603 374.128 652.476C374.029 652.476 373.916 652.476 373.817 652.476L373.719 748C382.914 733.177 392.11 718.34 401.305 703.503L420.529 670.275C482.839 660.684 540.325 631.73 585.809 586.358C631.152 541.1 660.178 483.867 669.965 421.769H648.302L648.316 421.755Z" fill="#034930"/>
<path d="M100.403 327.768C122.701 196.689 237.082 96.6094 374.352 96.5953L374.451 0.0136719C365.453 15.2033 356.469 30.3788 347.471 45.5684L328.248 78.7965C265.938 88.387 208.437 117.342 162.967 162.713C117.511 208.084 88.4576 265.486 78.7402 327.754H100.403V327.768Z" fill="#034930"/>
<path d="M421.092 100.53C552.312 122.814 652.49 237.364 652.349 374.804C652.349 374.874 652.349 374.959 652.349 375.029L748 375.128C733.12 365.961 718.255 356.779 703.376 347.612L670.148 328.389C660.557 266.079 631.603 208.592 586.231 163.108C540.846 117.638 483.416 88.5705 421.106 78.8672V100.53H421.092Z" fill="#034930"/>
<path d="M327.091 648.428C196.252 625.905 96.4265 511.609 96.4547 374.493L0 374.395C15.1473 383.407 30.2805 392.433 45.4278 401.445L78.6559 420.669C88.2464 482.978 117.201 540.479 162.573 585.949C207.803 631.278 265.021 660.289 327.077 670.091V648.428H327.091Z" fill="#034930"/>
<path d="M500.087 212.034C422.686 151.713 310.548 154.054 235.658 222.358C235.601 222.414 235.545 222.457 235.489 222.513L187.945 170.4C200.342 173.926 212.74 177.452 225.137 180.978L252.145 189.567C290.944 163.828 336.725 151.05 384.113 153.222C431.374 155.394 475.673 172.219 511.892 201.259L500.073 212.034H500.087Z" fill="#05C87F"/>
<path d="M247.631 535.754C324.976 596.245 437.184 594.031 512.159 525.783L560.224 578.474C547.771 574.652 535.303 570.83 522.85 567.008L495.827 558.419C457.028 584.158 411.248 596.936 363.859 594.764C316.485 592.592 272.073 575.682 235.812 546.516L247.631 535.74V535.754Z" fill="#05C87F"/>
<path d="M535.713 500.411C596.288 423.01 594.045 310.646 525.628 235.671C525.586 235.629 525.544 235.587 525.516 235.545L577.699 187.931C574.131 200.328 570.577 212.739 567.009 225.136L558.419 252.159C584.159 290.958 596.936 336.738 594.764 384.126C592.592 431.514 575.668 475.955 546.488 512.215L535.713 500.397V500.411Z" fill="#05C87F"/>
<path d="M211.992 247.956C151.741 325.314 154.054 437.339 222.245 512.215L169.624 560.224C173.404 547.771 177.198 535.317 180.978 522.864L189.567 495.841C163.828 457.042 151.05 411.261 153.222 363.873C155.394 316.64 172.205 272.341 201.216 236.137L211.992 247.956Z" fill="#05C87F"/>
</g>
<defs>
<clipPath id="clip0_538_753">
<rect width="748" height="748" fill="white"/>
</clipPath>
</defs>
</svg>
