<svg width="861" height="861" viewBox="0 0 861 861" fill="none" xmlns="http://www.w3.org/2000/svg">
<g clip-path="url(#clip0_899_23)">
<path d="M498.073 123.928C517.819 96.146 548.7 45.0887 540.148 20.1914C536.632 10.6487 529.844 4.4064 520.675 1.8521C519.383 1.40725 489.994 -7.80545 466.547 33.4939C449.728 54.5453 444.017 14.5519 427.572 14.5662C412.834 14.5662 403.952 53.8709 391.037 33.1351C372.267 0.775853 351.259 -1.2475 340.109 0.431453C329.145 1.7086 320.148 10.9357 317.235 21.1529C311.437 46.1075 338.846 96.4186 360.141 126.783C307.706 168.585 267.498 248.227 267.498 300.978V306.818C267.44 344.372 267.383 379.86 292.653 405.188C316.517 429.08 358.376 439.742 428.375 439.742C582.466 439.742 593.573 387.308 593.573 300.978C593.544 244.554 553.881 164.179 498.073 123.928ZM345.002 28.7727C345.059 28.744 345.117 28.7153 345.189 28.701C349.58 28.1844 357.845 33.1782 366.398 47.8869C375.625 62.7966 389.042 70.4595 401.684 68.637C411.242 67.8621 419.794 63.184 427.543 54.4162C435.192 63.1697 443.457 67.8191 452.268 68.4935C467.307 71.0765 483.723 61.6342 491.042 48.4609C494.543 42.1613 503.77 27.0938 513.04 29.5763C514.762 38.3011 497.873 75.5681 473.219 109.305C458.869 102.761 443.845 98.8438 428.347 98.8438C413.337 98.8438 398.384 103.249 383.991 110.812C360.787 78.2802 344.241 39.8222 345.002 28.7727ZM428.347 411.042C368.249 411.042 330.48 402.49 312.93 384.911C296.068 368.007 296.112 341.029 296.169 306.861V300.978C296.169 235.068 370.014 127.529 428.347 127.529C498.734 127.529 564.844 235.728 564.844 300.978C564.844 371.939 564.844 411.042 428.347 411.042Z" fill="#05C87F"/>
<path d="M436.227 259.764C419.351 252.933 416.51 249.231 416.51 243.534C416.51 238.239 420.399 232.585 431.305 232.585C442.154 232.585 448.984 236.402 451.912 238.038L456.346 240.52L463.994 220.789L460.809 218.952C454.48 215.322 447.492 213.183 439.47 212.437V195.002H419.538V213.657C402.906 217.661 392.244 230.102 392.244 245.643C392.244 265.044 407.9 273.726 424.79 280.212C437.361 285.206 442.484 290.171 442.484 297.317C442.484 305.138 435.596 310.39 425.335 310.39C417.055 310.39 408.445 307.879 401.73 303.502L397.08 300.474L389.762 320.521L392.445 322.401C398.673 326.749 408.46 329.906 418.275 330.767V348.863H438.394V329.662C455.786 325.458 466.95 312.385 466.95 296.098C466.936 279.236 457.752 268.374 436.227 259.764Z" fill="#05C87F"/>
<path d="M474.513 690.838C496.138 676.617 510.431 652.279 510.431 624.67C510.431 580.917 474.57 545.314 430.501 545.314C386.432 545.314 350.572 580.917 350.572 624.67C350.572 652.279 364.879 676.617 386.49 690.838C342.794 708.373 311.812 751.093 311.812 800.988V846.65C311.812 854.586 318.241 861 326.163 861H534.84C542.776 861 549.19 854.586 549.19 846.65V800.974C549.19 751.079 518.209 708.359 474.513 690.838ZM430.501 574.014C458.757 574.014 481.731 596.73 481.731 624.656C481.731 652.581 458.742 675.311 430.501 675.311C402.261 675.311 379.272 652.595 379.272 624.656C379.272 596.716 402.246 574.014 430.501 574.014ZM520.49 832.3H340.513V800.974C340.513 751.352 380.879 710.971 430.501 710.971C480.124 710.971 520.49 751.352 520.49 800.974V832.3Z" fill="#034930"/>
<path d="M155.195 402.905C175.242 389.215 188.444 366.226 188.444 340.195C188.444 298.336 154.349 264.27 112.447 264.27C70.5303 264.27 36.4347 298.336 36.4347 340.195C36.4347 366.226 49.6367 389.215 69.6836 402.905C28.8435 419.78 0 460.004 0 506.871V551.628C0 559.564 6.4288 565.978 14.35 565.978H210.529C218.45 565.978 224.879 559.564 224.879 551.628V506.871C224.879 460.004 196.05 419.78 155.195 402.905ZM112.447 292.984C138.535 292.984 159.744 314.179 159.744 340.21C159.744 366.255 138.521 387.436 112.447 387.436C86.3727 387.436 65.1347 366.241 65.1347 340.21C65.1347 314.164 86.3583 292.984 112.447 292.984ZM196.179 537.278H28.7V506.871C28.7 460.692 66.2683 423.124 112.447 423.124C158.625 423.124 196.179 460.692 196.179 506.871V537.278Z" fill="#034930"/>
<path d="M791.315 402.919C811.362 389.229 824.564 366.24 824.564 340.209C824.564 298.35 790.468 264.283 748.552 264.283C706.636 264.283 672.54 298.35 672.54 340.209C672.54 366.24 685.742 389.229 705.789 402.919C664.949 419.78 636.105 460.017 636.105 506.87V551.628C636.105 559.563 642.52 565.978 650.455 565.978H846.649C854.584 565.978 860.999 559.563 860.999 551.628V506.87C860.999 460.003 832.155 419.78 791.315 402.919ZM748.552 292.983C774.64 292.983 795.864 314.178 795.864 340.209C795.864 366.254 774.64 387.435 748.552 387.435C722.464 387.435 701.24 366.24 701.24 340.209C701.24 314.164 722.464 292.983 748.552 292.983ZM832.299 537.278H664.805V506.87C664.805 460.692 702.374 423.123 748.552 423.123C794.73 423.123 832.299 460.692 832.299 506.87V537.278Z" fill="#034930"/>
<path d="M583.887 483.781L523.832 462.6C516.327 460.017 508.162 463.892 505.521 471.354C502.881 478.83 506.813 487.038 514.275 489.664L574.33 510.845C581.691 513.385 590.043 509.439 592.64 502.092C595.281 494.615 591.363 486.421 583.887 483.781Z" fill="#05C87F"/>
<path d="M355.392 469.79C352.665 462.342 344.414 458.554 336.966 461.28L275.663 483.853C268.23 486.579 264.413 494.845 267.154 502.278C269.837 509.554 278.246 513.486 285.579 510.788L346.882 488.215C354.316 485.475 358.133 477.223 355.392 469.79Z" fill="#05C87F"/>
<path d="M429.954 525.21C430.126 525.21 430.298 525.21 430.485 525.196C438.406 524.909 444.591 518.265 444.304 510.344L443.328 483.394C443.027 475.459 436.713 469.03 428.461 469.575C420.54 469.862 414.355 476.506 414.642 484.428L415.618 511.377C415.905 519.126 422.277 525.21 429.954 525.21Z" fill="#05C87F"/>
</g>
<defs>
<clipPath id="clip0_899_23">
<rect width="861" height="861" fill="white"/>
</clipPath>
</defs>
</svg>
