<svg width="862" height="862" viewBox="0 0 862 862" fill="none" xmlns="http://www.w3.org/2000/svg">
<g clip-path="url(#clip0_899_13)">
<path d="M735.764 126.236C654.357 44.8324 546.124 0 431 0C352.23 0 275.158 21.4507 208.119 62.032C202.154 65.6433 200.245 73.4064 203.856 79.373C207.468 85.338 215.229 87.2472 221.197 83.6359C284.292 45.4419 356.841 25.2539 431 25.2539C539.38 25.2539 641.271 67.4582 717.906 144.094C794.542 220.729 836.746 322.62 836.746 431C836.746 539.38 794.542 641.271 717.906 717.906C641.271 794.542 539.38 836.746 431 836.746C322.62 836.746 220.729 794.542 144.094 717.906C67.4582 641.271 25.2539 539.38 25.2539 431C25.2539 356.233 45.7533 283.174 84.5332 219.717C88.1698 213.768 86.2943 205.996 80.3445 202.358C74.3913 198.721 66.6232 200.597 62.9849 206.547C21.7806 273.97 0 351.585 0 431C0 546.124 44.8324 654.357 126.236 735.764C207.643 817.168 315.876 862 431 862C546.124 862 654.357 817.168 735.764 735.764C817.168 654.357 862 546.124 862 431C862 315.876 817.168 207.643 735.764 126.236Z" fill="#05C87F"/>
<path d="M744.358 617.512C746.289 618.574 748.376 619.079 750.434 619.079C754.889 619.079 759.207 616.717 761.507 612.538C791.933 557.261 808.014 494.485 808.014 431C808.014 330.296 768.798 235.617 697.589 164.409C626.382 93.2 531.703 53.9824 430.999 53.9824C374.56 53.9824 320.274 66.1531 269.653 90.1561C263.352 93.1445 260.666 100.675 263.655 106.975C266.643 113.279 274.177 115.961 280.474 112.974C327.687 90.5854 378.331 79.2346 430.999 79.2346C624.962 79.2346 782.762 237.035 782.762 430.998C782.762 490.237 767.763 548.801 739.384 600.359C736.021 606.471 738.248 614.149 744.358 617.512Z" fill="#05C87F"/>
<path d="M106.324 264.925C100.012 261.964 92.4915 264.678 89.5284 270.991C65.9429 321.24 53.9844 375.074 53.9844 431C53.9844 531.704 93.2003 626.383 164.41 697.59C235.617 768.8 330.296 808.016 431 808.016C494.483 808.016 557.258 791.934 612.535 761.51C618.645 758.146 620.872 750.469 617.508 744.359C614.146 738.249 606.467 736.023 600.358 739.384C548.803 767.763 490.239 782.763 431.002 782.763C237.038 782.763 79.2383 624.964 79.2383 431C79.2383 378.81 90.3921 328.587 112.388 281.721C115.353 275.409 112.637 267.89 106.324 264.925Z" fill="#05C87F"/>
<path d="M210.639 327.57C205.362 329.215 201.77 334.099 201.77 339.625V522.576C201.77 529.55 207.423 535.203 214.396 535.203C221.37 535.203 227.023 529.55 227.023 522.576V380.132L327.706 525.926C331.825 531.876 338.533 534.457 344.794 532.501C351.276 530.475 355.463 524.155 355.463 516.278L353.751 339.162C353.684 332.229 348.044 326.656 341.127 326.656C341.087 326.656 341.045 326.656 341.003 326.656C334.029 326.724 328.431 332.431 328.499 339.404L329.903 484.665L224.786 332.45C221.646 327.902 215.913 325.929 210.639 327.57Z" fill="#05C87F"/>
<path d="M491.528 352.58C498.501 352.58 504.155 346.927 504.155 339.953C504.155 332.98 498.501 327.326 491.528 327.326H417.783C410.81 327.326 405.156 332.98 405.156 339.953V521.902C405.156 528.876 410.81 534.529 417.783 534.529C424.757 534.529 430.41 528.876 430.41 521.902V441.831H485.669C492.643 441.831 498.296 436.177 498.296 429.204C498.296 422.23 492.643 416.577 485.669 416.577H430.41V352.578H491.528V352.58Z" fill="#05C87F"/>
<path d="M609.614 535.203C616.587 535.203 622.241 529.55 622.241 522.576V351.91H660.431C667.405 351.91 673.058 346.257 673.058 339.283C673.058 332.31 667.405 326.656 660.431 326.656H559.205C552.232 326.656 546.578 332.31 546.578 339.283C546.578 346.257 552.232 351.91 559.205 351.91H596.987V522.576C596.987 529.55 602.64 535.203 609.614 535.203Z" fill="#05C87F"/>
<path d="M39.6191 160.213C92.1894 160.213 134.959 202.983 134.959 255.554C134.959 262.527 140.613 268.18 147.586 268.18C154.56 268.18 160.213 262.527 160.213 255.554C160.213 202.982 202.983 160.213 255.554 160.213C262.527 160.213 268.18 154.56 268.18 147.586C268.18 140.613 262.527 134.959 255.554 134.959C202.982 134.959 160.213 92.1894 160.213 39.6191C160.213 32.6457 154.56 26.9922 147.586 26.9922C140.613 26.9922 134.959 32.6457 134.959 39.6191C134.959 92.1894 92.1894 134.959 39.6191 134.959C32.6457 134.959 26.9922 140.613 26.9922 147.586C26.9922 154.56 32.6457 160.213 39.6191 160.213ZM147.586 93.3157C159.294 116.761 178.411 135.879 201.857 147.586C178.411 159.294 159.292 178.411 147.586 201.857C135.879 178.411 116.761 159.292 93.3157 147.586C116.763 135.88 135.88 116.763 147.586 93.3157Z" fill="#05C87F"/>
<path d="M641.056 727.911C641.056 734.884 646.71 740.538 653.683 740.538C660.656 740.538 666.31 734.884 666.31 727.911C666.31 693.945 693.945 666.31 727.911 666.31C734.884 666.31 740.538 660.656 740.538 653.683C740.538 646.71 734.884 641.056 727.911 641.056C693.945 641.056 666.31 613.422 666.31 579.455C666.31 572.482 660.656 566.828 653.683 566.828C646.71 566.828 641.056 572.482 641.056 579.455C641.056 613.422 613.422 641.056 579.455 641.056C572.482 641.056 566.828 646.71 566.828 653.683C566.828 660.656 572.482 666.31 579.455 666.31C613.423 666.31 641.056 693.945 641.056 727.911ZM653.683 624.516C660.931 636.411 670.955 646.435 682.85 653.683C670.955 660.931 660.931 670.955 653.683 682.85C646.435 670.955 636.411 660.931 624.516 653.683C636.411 646.435 646.435 636.411 653.683 624.516Z" fill="#05C87F"/>
</g>
<defs>
<clipPath id="clip0_899_13">
<rect width="862" height="862" fill="white"/>
</clipPath>
</defs>
</svg>
